<svg xmlns="http://www.w3.org/2000/svg" viewBox="0 0 512 512"><defs><style>.cls-3{fill:#7cb342}</style></defs><g id="Layer_1"><g id="Energy_Protection"><path d="M466.8 46.4C463.8 44.5 391.8 0 256 0S48.2 44.5 45.2 46.4c-2.2 1.4-3.5 3.7-3.5 6.3v166.7c.6 129.3 84.4 245.1 211.5 292.1 1.8.7 3.9.7 5.7 0 127-46.9 210.9-162.7 211.5-292.1V52.7c0-2.5-1.3-4.9-3.5-6.3Z" class="cls-3"/><path d="M417.9 73.4C366.5 53.8 311.4 44.2 256 45.1c-55.4-.9-110.4 8.7-161.9 28.2-2.9 1.2-4.8 3.9-4.8 6.9v139.1c.3 104.1 63.9 198.7 163.3 242.8 2.1.9 4.6.9 6.7 0 99.4-44.1 163-138.7 163.3-242.8V80.4c0-3-1.9-5.7-4.8-6.9Z" style="fill:#fff"/></g><path d="M314.8 166.4h-6.5v-26.1c0-28.8-23.4-52.3-52.3-52.3s-52.3 23.4-52.3 52.3v26.1h-6.5c-10.8 0-19.6 8.8-19.6 19.6v91.5c0 10.8 8.8 19.6 19.6 19.6h117.6c10.8 0 19.6-8.8 19.6-19.6V186c0-10.8-8.8-19.6-19.6-19.6m-93.6-26.1c0-19.2 15.6-34.8 34.8-34.8s34.8 15.6 34.8 34.8v26.1h-69.7v-26.1Zm43.5 93.4v19.8c0 4.8-3.9 8.7-8.7 8.7s-8.7-3.9-8.7-8.7v-19.8c-5.2-3-8.7-8.6-8.7-15 0-9.6 7.8-17.4 17.4-17.4s17.4 7.8 17.4 17.4-3.5 12-8.7 15" class="cls-3"/><path d="M202.3 369.7c.3 1.5.8 2.7 1.7 3.8.9 1 1.9 1.7 3.2 2.2s2.7.7 4.3.7q4.05 0 6.3-1.8c1.4-1.2 2.2-2.7 2.2-4.4s-.4-2.6-1.3-3.5-2.1-1.7-3.6-2.3-3.3-1.2-5.3-1.9c-2.1-.6-4.2-1.2-6.3-1.9s-4-1.7-5.7-2.8-3.1-2.6-4.1-4.4-1.5-4.1-1.5-6.8c0-3.3.9-6.1 2.6-8.5s4-4.2 6.9-5.3c2.9-1.2 6.2-1.8 10.1-1.8s6.3.5 9 1.4c2.6 1 4.8 2.4 6.6 4.3s3 4.2 3.8 6.9l-11 2.5c-.3-1.1-.8-2.1-1.6-2.9s-1.8-1.4-2.9-1.8-2.3-.6-3.5-.7c-1.4 0-2.7.2-3.9.7s-2.1 1.1-2.8 2-1 1.9-1 3.1.4 2.3 1.2 3.1q1.2 1.2 3.3 2.1c1.4.6 2.9 1.1 4.6 1.7 2.1.7 4.3 1.4 6.5 2.2s4.2 1.8 6.1 3 3.4 2.8 4.5 4.6c1.1 1.9 1.7 4.2 1.7 7s-.7 5.8-2.2 8.2c-1.4 2.4-3.6 4.4-6.5 5.8s-6.6 2.2-11 2.2-7-.5-10-1.6-5.4-2.6-7.3-4.7-3.2-4.6-3.8-7.6l11.1-2.6Zm46.6 0c.3 1.5.8 2.7 1.7 3.8.9 1 1.9 1.7 3.2 2.2s2.7.7 4.3.7q4.05 0 6.3-1.8c1.4-1.2 2.2-2.7 2.2-4.4s-.4-2.6-1.3-3.5-2.1-1.7-3.6-2.3-3.3-1.2-5.3-1.9c-2.1-.6-4.2-1.2-6.3-1.9s-4-1.7-5.7-2.8-3.1-2.6-4.1-4.4-1.5-4.1-1.5-6.8c0-3.3.9-6.1 2.6-8.5s4-4.2 6.9-5.3c2.9-1.2 6.2-1.8 10.1-1.8s6.4.5 9 1.4c2.6 1 4.8 2.4 6.6 4.3s3 4.2 3.8 6.9l-11 2.5c-.3-1.1-.8-2.1-1.6-2.9s-1.8-1.4-2.9-1.8-2.3-.6-3.5-.7c-1.4 0-2.7.2-3.9.7s-2.1 1.1-2.8 2-1 1.9-1 3.1.4 2.3 1.2 3.1q1.2 1.2 3.3 2.1c1.4.6 2.9 1.1 4.6 1.7 2.1.7 4.3 1.4 6.5 2.2s4.2 1.8 6.1 3 3.4 2.8 4.5 4.6 1.7 4.2 1.7 7-.7 5.8-2.2 8.2c-1.4 2.4-3.6 4.4-6.5 5.8s-6.6 2.2-11 2.2-7-.5-10-1.6-5.4-2.6-7.3-4.7-3.2-4.6-3.8-7.6l11.1-2.6Zm49.3-38.2v44.2h23.9v10h-35.8v-54.2z" style="fill:#024c67"/></g></svg>