<svg xmlns="http://www.w3.org/2000/svg" xml:space="preserve" id="Layer_1" x="0" y="0" version="1.1" viewBox="0 0 201 137"><style>.st0{fill-rule:evenodd;clip-rule:evenodd;fill:#fff}</style><g id="Layer_x0020_1"><path d="M59.6 36.3h.4l26.3 66.2H65.9l-3.8-11.1H37.7l5.9-14.9H57l-6.1-18.1z" class="st0"/><path d="M74 .1H54.5L40.8 34.5h19.5z" style="fill-rule:evenodd;clip-rule:evenodd;fill:#172b74"/><path d="M33.3 102.5H13.7L0 136.9h19.5z" style="fill-rule:evenodd;clip-rule:evenodd;fill:#ff7f1e"/><path d="m90 102.3 15.5-.1V62.6l2 2.3c.6.9 1.2 1.6 1.8 2.5l25.9 34.9H150V37.1h-15.3l-.1 39.8c-2-1.8-5.6-7-7.5-9.6-2.7-3.6-4.9-6.5-7.5-10.1l-15-20.2H90zm72-51.9 22.4.1c0 5.1.3 29.7-.2 32.6-1.7 9.5-13.5 5.4-18.1.6-1-1.2-.9-1.4-2.4-1.9-1.3 1.4-7 9.5-7.4 11.1 5.5 5.9 15 11.9 27.7 9.6 10.7-1.9 17-9.4 17-21.5V37h-39z" class="st0"/><path d="M42.2 120.1h-1.4l-.6-1.8h-3.1l-.6 1.8H35l2.9-7.3h1.4zm-2.5-2.8-1.1-2.9c0-.1 0-.3-.1-.5 0 .2 0 .4-.1.5l-1 2.9zm9.6-.1c0 2-1.1 3-3.1 3-1.9 0-3-1-3-2.9v-4.5h1.4v4.2c0 1.5.5 2.1 1.7 2.1s1.7-.6 1.7-2v-4.3h1.3zm6.8-3.3h-2.2v6.2h-1.3v-6.2h-2.3v-1h5.8zm4.2 6.3c-1 0-2-.3-2.7-1q-.9-1.05-.9-2.7c0-1.2.3-2.1.9-2.8.7-.7 1.6-1.1 2.8-1.1s2 .3 2.7 1.1c.6.6 1 1.5 1 2.6 0 1.2-.3 2.1-1 2.8-.8.8-1.6 1.1-2.8 1.1m.1-6.4c-.7 0-1.3.2-1.7.7-.5.5-.7 1.2-.7 1.9 0 .8.2 1.5.6 1.9.4.5 1 .7 1.7.7s1.4-.2 1.8-.6c.4-.5.6-1.2.6-2s-.2-1.5-.6-1.9c-.4-.5-.9-.7-1.7-.7m11.1 6.3H70l-1.3-1.9c-.1-.2-.2-.3-.3-.4q-.15-.3-.3-.3c-.1-.1-.2-.2-.3-.2-.2 0-.3-.1-.4-.1h-.5v3h-1.3v-7.3h2.6c.3 0 .6.1 1 .2.3 0 .5.1.7.3.3.1.4.3.5.6.2.2.2.5.2.9 0 .2 0 .4-.1.6s-.2.4-.3.5c-.2.2-.3.3-.5.4-.2.2-.4.2-.7.3.1.1.3.2.4.2.1.1.1.2.2.3l.3.3c.1.1.2.2.3.4zm-4.7-6.3v2.4h1.6c.1-.1.3-.2.4-.3l.3-.3c0-.2.1-.3.1-.5 0-.3-.2-.6-.4-.8q-.3-.3-.9-.3zm7 6.3h-1.4v-7.3h1.4zm6.8-6.2h-2.2v6.2h-1.3v-6.2h-2.3v-1h5.8zm16.5 6.2h-1.4l-3.8-5.4c0-.1-.1-.2-.2-.4v5.8h-1.2v-7.3H92l3.6 5.2c.2.2.3.3.3.4v-5.6h1.2zm8.4 0h-1.4l-.8-1.8h-3l-.7 1.8h-1.4l2.9-7.3h1.5zm-2.5-2.8-1.1-2.9c-.1-.1-.1-.3-.1-.5-.1.2-.1.4-.1.5l-1.1 2.9zm8-3.4h-2.2v6.2h-1.3v-6.2h-2.3v-1h5.8zm2.5 6.2h-1.3v-7.3h1.3zm5.2.1c-1.2 0-2.1-.3-2.7-1-.7-.7-1-1.6-1-2.7 0-1.2.4-2.1 1-2.8s1.6-1.1 2.8-1.1c1 0 1.9.3 2.7 1.1.6.6.9 1.5.9 2.6 0 1.2-.3 2.1-1 2.8-.7.8-1.6 1.1-2.7 1.1m0-6.4c-.6 0-1.3.2-1.7.7s-.6 1.2-.6 1.9c0 .8.2 1.5.6 1.9.4.5.9.7 1.7.7.7 0 1.3-.2 1.7-.6.4-.5.6-1.2.6-2s-.2-1.5-.5-1.9c-.4-.5-1.1-.7-1.8-.7m11.7 6.3H129l-3.7-5.4c-.1-.1-.2-.2-.2-.4v5.8h-1.3v-7.3h1.5l3.6 5.2c.1.2.2.3.3.4-.1-.2-.1-.5-.1-.9v-4.7h1.3zm8.3 0h-1.4l-.6-1.8h-3.1l-.6 1.8h-1.4l2.9-7.3h1.4zm-2.5-2.8-1-2.9c0-.1 0-.3-.1-.5 0 .2 0 .4-.1.5l-1 2.9zm7.9 2.8h-4.4v-7.3h1.3v6.2h3.1zm5.5 0h-4.4v-7.3h4.2v1h-2.9v2h2.7v1h-2.7v2.1h3.1zm4.4 0v-7.3h2.2c2.9 0 4.3 1.2 4.3 3.5 0 1.2-.4 2-1.2 2.7-.7.7-1.8 1.1-3.2 1.1zm1.3-6.2v5.1h1.1c.8 0 1.6-.2 2-.6.5-.4.8-1.2.8-1.9 0-1.7-1-2.6-2.9-2.6zm11 6.2h-4.4v-7.3h4.3v1h-2.9v2h2.6v1h-2.6v2.1h3zm1.1-.3v-1.2c.1.1.2.1.4.2.1.1.3.2.5.2.1.1.3.1.5.1.1.1.3.1.5.1q.75 0 1.2-.3c.2-.1.4-.3.4-.6 0-.2-.1-.3-.2-.5l-.3-.3c-.2-.1-.3-.2-.5-.3s-.5-.1-.7-.2c-.2-.2-.5-.3-.7-.4s-.4-.3-.5-.4c-.2-.2-.3-.4-.4-.5-.1-.2-.1-.5-.1-.7 0-.3 0-.6.2-.9q.3-.45.6-.6c.3-.2.5-.3.9-.4.3 0 .6-.1 1-.1.8 0 1.5.1 1.8.3v1.2c-.4-.3-.9-.4-1.7-.4h-.5c-.2 0-.4.1-.5.2-.1 0-.2.1-.3.2s-.2.3-.2.4c0 .2.1.3.1.4l.3.3c.2.1.3.2.5.3s.4.2.7.3c.2.1.4.2.7.4.2.1.4.3.6.4.1.2.3.4.4.6s.1.4.1.6c0 .4-.1.7-.2.9l-.6.6c-.3.1-.5.2-.9.3-.3.1-.6.1-1.1.1h-.5c-.1 0-.3-.1-.5-.1s-.4-.1-.5-.1c-.3 0-.4 0-.5-.1m12-2.2c0 .8-.2 1.5-.7 1.9-.4.5-.9.7-1.8.7-.3 0-.6 0-.9-.1v-1.2c.2.2.5.2.9.2.8 0 1.3-.6 1.3-1.8v-4.5h1.3zm6.2 2.5h-4.4v-7.3h4.2v1h-2.9v2h2.7v1h-2.7v2.1h3.1zm7.4-2.9c0 2-1.1 3-3.1 3s-3-1-3-2.9v-4.5h1.3v4.2c0 1.5.5 2.1 1.7 2.1s1.7-.6 1.7-2v-4.3h1.4zm7.6 2.9H199l-1.5-2.7c-.1-.1-.1-.2-.2-.3 0 .1-.1.2-.2.3l-1.6 2.7h-1.6l2.6-3.7-2.3-3.6h1.6l1.4 2.4c.1.2.2.3.3.5.1-.2.1-.4.2-.5l1.5-2.4h1.4l-2.3 3.6zm-114.5 0h-4.3v-7.3H86v1h-2.9v2h2.7v1h-2.7v2.1h3zm-.6-9.6-1.6 1.6h-.8l1.3-1.6z" style="fill:#fff"/></g></svg>