<svg xmlns="http://www.w3.org/2000/svg" xml:space="preserve" id="Layer_1" x="0" y="0" version="1.1" viewBox="0 0 504 102"><style>.st0{fill-rule:evenodd;clip-rule:evenodd;fill:#fff}</style><g id="Layer_x0020_1"><path d="M87.5 70.7V31.8h.8c14 .1 12.6 7.4 12.7 20.2 0 10.9 1.5 20.2-13.5 18.7m297.9-.5v8.7h-41.1v-55H363v46.3zm-50.9 0v8.7h-41v-55h41.1l-.1 8.6h-22.3v13.7h15.9v.1h.1l-.1 9.3h-15.9V70zm-111.1-10h-17.2l.1 9.3c-.8 2.7-11.3 3.4-12.8-.3-.2-4.5-.2-29.8.4-35.5.4-3.3 11.6-3.8 12.3.4V43h17.2c.4-9.3-.6-13.1-7-16.5-4.8-2.6-13.4-3.9-21.4-3.3-6.1.5-10.9 1.3-15 4.6-1.9 1.6-2.5 2.4-3.5 4.8-2.2 4.8-2.4 11.4-2.4 19.3 0 8.2.3 14.6 2.7 19.2.7 1.5.5 1.2 1.7 2.5 4.1 4.4 9.9 5.5 16.5 6.1 7.8.5 15.8-.9 20.4-3.1 7.1-3.6 8-6 8-16.4m-192.3-20 5 18.7H26zm7.8 27.4 3.9 11.3h17.1L41.3 23.6H20.9L2.2 78.9h17.1l3.9-11.3zM233 23.9h51.6v8.7h-17.2v45.9h-17.2v-46H233zm-83.7-2.1 17.4 7.3-21.5 51.2-17.4-7.3zM164.6 0c5.9 0 10.7 4.8 10.7 10.7s-4.8 10.7-10.7 10.7-10.7-4.8-10.7-10.7S158.7 0 164.6 0M69.5 78.6c10.2.4 27.4.7 36.4-1.9 12-3.4 12.8-11.8 12.9-25.1.1-13-.8-22.4-12.2-25.7-8.6-2.6-27.6-2.6-37-2z" class="st0"/><path d="m408.2 25.5 80.5 9-3.7 32.7c-2.5-5.6-8.1-9.5-14.6-9.5-2.9 0-5.6.8-8 2.2 1.8-2.8 2.9-6.2 2.9-9.9 0-8.8-6.1-16-13.7-16s-13.7 7.2-13.7 16c0 3.7 1.1 7.2 2.9 9.9-2.3-1.3-5.1-2.2-8-2.2-8.8 0-15.9 7.2-15.9 15.9 0 8.8 7.1 15.9 15.9 15.9 6.5 0 12.1-3.9 14.5-9.5l1.1.5c-2.1 16-.7 11.7-6.6 21.6h-42.3zm75 57.5-2.1 19h-19.4c-5.9-9.9-4.6-5.5-6.6-21.5l.9-.5c2.5 5.5 8.1 9.4 14.5 9.4 5.2.1 9.8-2.5 12.7-6.4" style="fill-rule:evenodd;clip-rule:evenodd;fill:#fff;fill-opacity:.502"/><path d="m427.1 20.6 76.8 25.8-18.6 55.6h-23.6c-5.9-9.9-4.6-5.5-6.6-21.5l.9-.5c2.5 5.5 8.1 9.4 14.5 9.4 8.8 0 15.9-7.1 15.9-15.9s-7.1-15.9-15.9-15.9c-2.9 0-5.6.8-8 2.2 1.8-2.8 2.9-6.2 2.9-9.9 0-8.8-6.1-16-13.7-16s-13.7 7.2-13.7 16c0 3.7 1.1 7.2 2.9 9.9-2.3-1.3-5.1-2.2-8-2.2-8.8 0-15.9 7.2-15.9 15.9 0 8.8 7.1 15.9 15.9 15.9 6.5 0 12.1-3.9 14.5-9.5l1.1.5c-2.1 16-.7 11.7-6.6 21.6h-42z" class="st0"/><path d="m9.2 97.6 1.4 4h3l-5-14.3H5L.1 101.6H3l1.3-4zm-4.4-2L6 92.1c.3-.9.5-1.8.7-2.7.2.8.5 1.8.8 2.7l1.2 3.5zm17.6 6c.9.1 2.2.2 3.8.2 3 0 5.5-.6 7-1.9 1.5-1.2 2.4-3.1 2.4-5.7 0-2.4-.9-4.1-2.4-5.2-1.4-1.1-3.4-1.6-6.3-1.6-1.6 0-3.3.1-4.5.3zm2.9-12.1c.4-.1 1-.2 1.9-.2 3.5 0 5.5 1.8 5.5 4.9 0 3.6-2.2 5.5-5.9 5.5h-1.6c.1 0 .1-10.2.1-10.2m19.5 12.1c.9.1 2.2.2 3.8.2 3 0 5.5-.6 7-1.9 1.5-1.2 2.4-3.1 2.4-5.7 0-2.4-.9-4.1-2.4-5.2-1.4-1.1-3.4-1.6-6.3-1.6-1.6 0-3.3.1-4.5.3zm2.8-12.1c.4-.1 1-.2 1.9-.2 3.5 0 5.5 1.8 5.5 4.9 0 3.6-2.2 5.5-5.8 5.5h-1.6zm19.5-2.1v14.3h2.8V87.4zm23.3 11.8c-.7.3-1.9.5-3.1.5-3.4 0-5.4-2-5.4-5.1 0-3.4 2.3-5.3 5.4-5.3 1.3 0 2.3.3 3 .5l.6-2.1c-.6-.3-1.9-.6-3.8-.6-4.7 0-8.3 2.8-8.3 7.5 0 4.4 3 7.2 7.9 7.2 1.8 0 3.3-.4 4-.6zm13 2.4h2.8v-12h4.4v-2.2H99v2.2h4.4zm15.7-14.2v14.3h2.8V87.4zm19.2-.3c-4.4 0-7.3 3.1-7.3 7.5 0 4.2 2.8 7.2 7.1 7.2s7.4-2.8 7.4-7.5c0-4-2.6-7.2-7.2-7.2m0 2.2c2.8 0 4.3 2.5 4.3 5.2 0 3-1.6 5.3-4.3 5.3-2.8 0-4.3-2.3-4.3-5.2 0-3 1.4-5.3 4.3-5.3m18.9 12.3v-5.1c0-2.3 0-4.2-.1-6.1h.1c.7 1.6 1.8 3.3 2.8 4.9l4 6.3h2.9V87.4h-2.6v5c0 2.2 0 4 .2 5.9-.7-1.6-1.6-3.2-2.6-4.8l-4-6.1h-3.2v14.3zm41.4 0h2.8v-5.4c.4 0 .8.1 1.4.1 2 0 3.8-.5 4.9-1.5.9-.8 1.3-1.9 1.3-3.3 0-1.3-.6-2.4-1.5-3.2-1-.7-2.5-1.1-4.5-1.1-1.9 0-3.3.1-4.3.3zm2.8-12.2c.3 0 .8-.1 1.6-.1 2 0 3.2.9 3.2 2.4 0 1.7-1.3 2.6-3.4 2.6-.6 0-1.1 0-1.4-.1zm16.7 12.2h2.8v-5.9h1.4c1.7 0 2.4.6 2.8 2.5.5 1.7.8 2.9 1.1 3.3h2.9c-.3-.5-.7-2.2-1.2-4-.4-1.4-1.1-2.3-2.2-2.8 1.4-.5 2.8-1.7 2.8-3.6 0-1.2-.5-2.2-1.3-2.8-1.1-.8-2.6-1.1-4.8-1.1-1.6 0-3.2.1-4.3.3zm2.8-12.2c.3-.1.9-.1 1.7-.1 1.9 0 3.1.7 3.1 2.3 0 1.4-1.2 2.3-3.1 2.3h-1.7zm25.5 3.8h-5.8v-3.7h6.1v-2.2h-9v14.3h9.4v-2.2h-6.5v-4.2h5.8zm16.8 8.4 5.3-14.3h-3l-2.2 6.5c-.6 1.7-1.2 3.5-1.6 5.2-.4-1.7-.9-3.4-1.5-5.2l-2.1-6.5H255l5 14.3zm22.3-8.4h-5.8v-3.7h6.2v-2.2h-9v14.3h9.3v-2.2h-6.5v-4.2h5.8zm12.4 8.4v-5.1c0-2.3 0-4.2-.1-6.1h.1c.7 1.6 1.8 3.3 2.7 4.9l4 6.3h2.9V87.4H305v5c0 2.2 0 4 .2 5.9-.7-1.6-1.6-3.2-2.6-4.8l-4-6.1h-3.2v14.3zm22.5 0h2.8v-12h4.4v-2.2H316v2.2h4.4zm15.8-14.2v14.3h2.8V87.4zm19.2-.3c-4.4 0-7.3 3.1-7.3 7.5 0 4.2 2.8 7.2 7.1 7.2s7.4-2.8 7.4-7.5c0-4-2.7-7.2-7.2-7.2m0 2.2c2.8 0 4.3 2.5 4.3 5.2 0 3-1.6 5.3-4.3 5.3s-4.3-2.3-4.3-5.2c-.1-3 1.5-5.3 4.3-5.3m18.9 12.3v-5.1c0-2.3 0-4.2-.1-6.1.8 1.6 1.8 3.3 2.8 4.9l4 6.3h2.9V87.4h-2.6v5c0 2.2.1 4 .3 5.9q-1.05-2.4-2.7-4.8l-4-6.1h-3.2v14.3z" style="fill:#fff"/></g></svg>