<svg xmlns="http://www.w3.org/2000/svg" xmlns:xlink="http://www.w3.org/1999/xlink" xml:space="preserve" id="Layer_1" x="0" y="0" version="1.1" viewBox="0 0 162 101"><style>.st3{fill:#f90000}.st6{fill:#ff4014}</style><path d="M20.4 73.6h5.2V93c0 4.9-4.5 6.9-8.6 6.9l-.7-4c2.5-.5 4-1.3 4-4.4V73.6zm-.5-5.7c0-1.6 1.4-3 3-3 1.7 0 3 1.3 3 3 0 1.6-1.4 3-3 3s-3-1.4-3-3m7.8 14.8c0-5.7 4.5-9.5 10.4-9.5s10.4 3.7 10.4 9.5-4.6 9.5-10.4 9.5-10.4-3.8-10.4-9.5m15.7 0c0-3-2.3-5.1-5.3-5.1s-5.3 2.1-5.3 5.1 2.3 5.2 5.3 5.2 5.3-2.2 5.3-5.2m26.1 9.1h-4.3l-.4-2.3c-1.7 1.9-4.1 2.7-6.6 2.7-5 0-7.6-3-7.6-8V73.6h5.2v10.1c0 2.7 1.3 4.1 4 4.1s4.6-1.5 4.6-4.2v-10h5.2v18.2zm13.2.4c-5.9 0-10.8-3.3-10.8-9.4s4.7-9.6 10.5-9.6 9.9 4 9.9 9.3c0 .6 0 1.2-.1 1.7H77c.3 2.6 2.6 4.2 5.9 4.2 2.1 0 3.9-.6 5.5-1.6l2.3 3c-2 1.5-4.9 2.4-8 2.4M87.2 81c-.2-2.1-1.9-3.8-4.9-3.8s-4.8 1.5-5.2 3.8zM113 91.8h-4.3l-.4-2.3c-1.7 1.9-4.1 2.7-6.6 2.7-5 0-7.6-3-7.6-8V73.6h5.2v10.1c0 2.7 1.3 4.1 4 4.1s4.6-1.5 4.6-4.2v-10h5.2zm3.5-18.2h4.3l.5 2.8c1.3-2.2 3.1-3.2 5.7-3.2.9 0 1.8.1 2.7.4l-.8 4.6q-1.05-.3-2.1-.3c-3.7 0-5 2.7-5 6.3v7.7h-5.2zm20.7 14.7c1.7 0 3.5-.4 3.5-1.7 0-3.2-10.8-.7-10.8-7.5 0-4 3.7-5.8 7.8-5.8 3 0 5.5.9 7.4 2.3l-1.9 2.9c-1.8-1-3.6-1.4-5.2-1.4-1.8 0-3.1.6-3.1 1.7 0 3.1 10.8.9 10.8 7.7 0 3.9-3.5 5.8-8.3 5.8-3.9 0-6.2-1.3-8.4-2.9l2.2-2.8c2.1 1 3.8 1.7 6 1.7M21.7 40.9V1.4c-8.4-.3-19 7.1-19.2 19.2-.3 11.8 9.6 20.4 19.2 20.3m5.2 21.9c7.7-.5 13.6-3.7 17-10.4 3.9-7.6 3.1-15.1-2.2-21.8-3.7-4.7-8.7-7.1-14.8-7.3zm-14.5.1c5.2 0 9.4-4.1 9.4-9.3s-4.2-9.4-9.3-9.4c-5.2 0-9.4 4.2-9.4 9.4 0 5.1 4.1 9.3 9.3 9.3m33.2-52.1c0-5.2-4.1-9.4-9.3-9.4s-9.4 4.2-9.4 9.3c0 5.2 4.1 9.4 9.3 9.4 5.1 0 9.4-4.2 9.4-9.3" style="fill:#fff"/><defs><path id="SVGID_1_" d="M2.4 20.6C2.2 32.4 12.1 41 21.7 40.8V1.4h-.5c-8.3 0-18.5 7.3-18.8 19.2"/></defs><clipPath id="SVGID_00000168094930004189108960000016809806327074834859_"><use xlink:href="#SVGID_1_" style="overflow:visible"/></clipPath><g style="clip-path:url(#SVGID_00000168094930004189108960000016809806327074834859_)"><linearGradient id="SVGID_00000074419565479475226590000009229405872537986228_" x1="-19.192" x2="-18.427" y1="-71.601" y2="-71.601" gradientTransform="translate(483.23 1820.55)scale(25.13)" gradientUnits="userSpaceOnUse"><stop offset="0" style="stop-color:#bc1975"/><stop offset="1" style="stop-color:#f90000"/></linearGradient><path d="M2.2 1.4h19.5V41H2.2z" style="fill:url(#SVGID_00000074419565479475226590000009229405872537986228_)"/></g><path d="M26.9 62.8V23.3c6.1.2 11.1 2.6 14.8 7.3 5.3 6.7 6 14.2 2.2 21.8-3.4 6.7-9.3 9.9-17 10.4" class="st3"/><defs><path id="SVGID_00000010274747972076054810000006035099558074225817_" d="M3 53.5c0 5.2 4.2 9.4 9.3 9.4 5.2 0 9.4-4.1 9.4-9.3s-4.2-9.4-9.3-9.4h-.1c-5-.1-9.3 4.1-9.3 9.3"/></defs><clipPath id="SVGID_00000052105112378216811020000000834996963656356744_"><use xlink:href="#SVGID_00000010274747972076054810000006035099558074225817_" style="overflow:visible"/></clipPath><g style="clip-path:url(#SVGID_00000052105112378216811020000000834996963656356744_)"><linearGradient id="SVGID_00000156564492849715301560000004409216822832567987_" x1="-19.23" x2="-18.466" y1="-71.986" y2="-71.986" gradientTransform="translate(473.17 1818.59)scale(24.52)" gradientUnits="userSpaceOnUse"><stop offset="0" style="stop-color:#bc1975"/><stop offset="1" style="stop-color:#f90000"/></linearGradient><path d="M3 44.1h18.8v18.8H3z" style="fill:url(#SVGID_00000156564492849715301560000004409216822832567987_)"/></g><path d="M45.6 10.8c0 5.2-4.3 9.4-9.4 9.3-5.2-.1-9.3-4.2-9.3-9.4s4.3-9.4 9.4-9.3c5.1-.1 9.3 4.2 9.3 9.4" class="st3"/><path d="M135.6 40.8c-9.6.2-19.5-8.5-19.2-20.2.3-12.1 10.9-19.5 19.2-19.2z" class="st6"/><defs><path id="SVGID_00000010278793210592939790000008408815225314723753_" d="M140.8 62.7c7.7-.5 13.6-3.7 17-10.4 3.9-7.6 3.1-15.1-2.2-21.8-3.7-4.7-8.7-7.1-14.8-7.3z"/></defs><clipPath id="SVGID_00000165952630254867282660000015372925583681103013_"><use xlink:href="#SVGID_00000010278793210592939790000008408815225314723753_" style="overflow:visible"/></clipPath><g style="clip-path:url(#SVGID_00000165952630254867282660000015372925583681103013_)"><linearGradient id="SVGID_00000029735400319921379130000003900156101378995593_" x1="-20.87" x2="-20.106" y1="-71.85" y2="-71.85" gradientTransform="translate(671.31 1869.32)scale(25.42)" gradientUnits="userSpaceOnUse"><stop offset="0" style="stop-color:#ff4014"/><stop offset="0" style="stop-color:#ff4014"/><stop offset=".4" style="stop-color:#ff5d14"/><stop offset=".75" style="stop-color:#ff7014"/><stop offset="1" style="stop-color:#ff7715"/></linearGradient><path d="M140.8 23.2h20.9v39.5h-20.9z" style="fill:url(#SVGID_00000029735400319921379130000003900156101378995593_)"/></g><path d="M126.3 62.8c-5.2 0-9.3-4.2-9.3-9.4 0-5.1 4.3-9.4 9.4-9.4 5.2 0 9.3 4.3 9.3 9.4 0 5.2-4.2 9.4-9.4 9.4" class="st6"/><defs><path id="SVGID_00000066506808237629842430000000463981289455371705_" d="M140.7 10.5c0 5.2 4.1 9.4 9.3 9.4 5.2.1 9.4-4.1 9.4-9.3s-4.1-9.4-9.3-9.4h-.1c-5.1 0-9.3 4.2-9.3 9.3"/></defs><clipPath id="SVGID_00000031893312799268439650000007160672561707915178_"><use xlink:href="#SVGID_00000066506808237629842430000000463981289455371705_" style="overflow:visible"/></clipPath><g style="clip-path:url(#SVGID_00000031893312799268439650000007160672561707915178_)"><linearGradient id="SVGID_00000103973469016108689080000002743529059012323464_" x1="-20.975" x2="-20.21" y1="-71.491" y2="-71.491" gradientTransform="translate(655.03 1763.58)scale(24.52)" gradientUnits="userSpaceOnUse"><stop offset="0" style="stop-color:#ff4014"/><stop offset="0" style="stop-color:#ff4014"/><stop offset=".4" style="stop-color:#ff5d14"/><stop offset=".75" style="stop-color:#ff7014"/><stop offset="1" style="stop-color:#ff7715"/></linearGradient><path d="M140.7 1.2h18.8V20h-18.8z" style="fill:url(#SVGID_00000103973469016108689080000002743529059012323464_)"/></g><path d="M81.4 1.2v16.5c7.9 0 14.4 6.4 14.4 14.4s-6.4 14.4-14.4 14.4V63c17 0 30.8-13.8 30.8-30.8s-13.8-31-30.8-31" class="st6"/><defs><path id="SVGID_00000097462345537447553260000000280989465549568438_" d="M50.5 32.1c0 17 13.8 30.8 30.8 30.8V46.5C73.4 46.5 67 40 67 32.1s6.4-14.4 14.4-14.4V1.2c-17.1 0-30.9 13.9-30.9 30.9"/></defs><clipPath id="SVGID_00000044888189776723354420000015307736533240301471_"><use xlink:href="#SVGID_00000097462345537447553260000000280989465549568438_" style="overflow:visible"/></clipPath><g style="clip-path:url(#SVGID_00000044888189776723354420000015307736533240301471_)"><linearGradient id="SVGID_00000095316975945019569750000017631321138984625837_" x1="-18.875" x2="-18.11" y1="-71.49" y2="-71.49" gradientTransform="translate(1025.95 3726.71)scale(51.68)" gradientUnits="userSpaceOnUse"><stop offset="0" style="stop-color:#f90000"/><stop offset=".93" style="stop-color:#bc1975"/><stop offset="1" style="stop-color:#bc1975"/></linearGradient><path d="M50.5 1.2h30.8v61.7H50.5z" style="fill:url(#SVGID_00000095316975945019569750000017631321138984625837_)"/></g></svg>