<svg width="40" height="40" viewBox="0 0 40 40" fill="none" xmlns="http://www.w3.org/2000/svg">
<g clip-path="url(#clip0_14894_54179)">
<path d="M40 0H0V40H40V0Z" fill="white"/>
<path d="M35.1667 22.2333C34.5667 22.2333 33.9667 22.1 33.4 21.8666L33.6333 20.8C34.1333 20.9666 34.6333 21.0666 35.1667 21.1C35.4667 21.1 36.1 21.1 36.1 20.5333C36.1 20.1 35.6333 19.9333 35.1667 19.8C35.0333 19.7666 34.9 19.7333 34.7667 19.6666C33.8333 19.3666 33.3667 18.8 33.3667 18C33.3667 16.6333 34.5333 16.3333 35.5 16.3333C36.0667 16.3333 36.6667 16.4666 37.2 16.6333L37 17.6666C36.5 17.5 36 17.4 35.4667 17.4C34.8667 17.4 34.5667 17.6 34.5667 17.9666C34.5667 18.3333 34.9 18.4333 35.4333 18.6H35.4667L35.7333 18.7C36.5333 18.9666 37.3667 19.3666 37.3667 20.4C37.3 21.6 36.5333 22.2333 35.1667 22.2333ZM17.5667 22.1L16.3333 20.2L16.4667 20.1333C17.2667 19.9 17.5667 19.0666 17.5667 18.4C17.5667 17.1666 16.8 16.5 15.5 16.5H13.1V22.0666H14.3333V20.3666H15.1667L16.1333 22.0666L17.5667 22.1ZM14.3333 17.6H15.4C15.8667 17.6 16.3667 17.8333 16.3667 18.4666C16.3667 18.9333 16.1 19.3666 15.3667 19.3666H14.3333V17.6ZM26.5333 19.3C26.5333 17.4666 25.5667 16.3666 23.9333 16.3666C22.3 16.3666 21.3333 17.4666 21.3333 19.3C21.3333 21.1333 22.3 22.2333 23.9333 22.2333C25.5667 22.2333 26.5333 21.1333 26.5333 19.3ZM25.2667 19.3C25.2667 20.4333 24.7667 21.1 23.9 21.1C23.0333 21.1 22.5667 20.4333 22.5667 19.3C22.5667 18.1666 23.0333 17.5 23.9 17.5C24.7667 17.5 25.2667 18.2 25.2667 19.3ZM32.1667 22.1V16.5333H31V20.2666L28.9333 16.5333H27.7V22.1H28.9V18.5666L30.9 22.1H32.1667ZM20.1 22.1V16.5333H18.9V22.1H20.1ZM10.6333 21.1H8.63334L8.33335 22.1H7.00001L8.86668 16.5H10.4L12.2667 22.1H10.9333L10.6333 21.1ZM10.3333 20.0333L9.63334 17.6L8.93334 20.0333H10.3333ZM6.96668 18.4333C6.96668 19.8 6.16668 20.5333 4.73335 20.5333H3.86668V22.1333H2.70001V16.5333H4.66668C6.23335 16.5333 6.96668 17.1333 6.96668 18.4333ZM5.73335 18.5333C5.73335 17.9333 5.40001 17.6 4.76668 17.6H3.90001V19.4333H4.80001C5.30001 19.5 5.73334 19.1333 5.76668 18.6333C5.73334 18.6 5.73335 18.5666 5.73335 18.5333Z" fill="#00265A"/>
<path d="M37.2667 23.3333H2.70001V29.9666H37.2667V23.3333Z" fill="#003CDC"/>
<path d="M6.43332 28.8333C5.66666 28.8333 4.93332 28.8 4.16666 28.6666L4.33332 27.8666H4.73332C5.29999 28.0666 5.89999 28.1666 6.46666 28.1333C7.26666 28.1333 8.06666 28 8.16666 27.5666C8.23332 27.3 8.13332 27.1 7.59999 27.0333L6.16666 26.9333C4.96666 26.8333 4.56666 26.3333 4.69999 25.6666C4.83332 24.7333 5.56666 24.3666 7.33332 24.3666C8.03332 24.3666 8.76666 24.4333 9.46666 24.5666L9.29999 25.3666H8.89999C8.36666 25.1666 7.79999 25.1 7.19999 25.1C6.43332 25.1 5.83332 25.1666 5.76666 25.5666C5.69999 25.8666 5.93332 26.0666 6.43332 26.1333L7.66666 26.2333C8.83332 26.3333 9.33332 26.7666 9.19999 27.5C8.99999 28.4666 8.19999 28.8333 6.43332 28.8333ZM16 26.0666L15.9667 26.2333C15.7667 27.2 15 27.7 13.6333 27.7H11.8L11.5667 28.7666H10.5L11.3667 24.5H14.2333C15.6667 24.5 16.1667 25.0333 16 26.0666ZM14 25.3H12.3333L12 26.9H13.8333C14.4333 26.9 14.8667 26.7333 14.9667 26.1666V26.0666C15.0333 25.6 14.8333 25.3 14 25.3ZM22.8667 26.5L22.8333 26.7333C22.5 28.1333 21.8 28.8333 19.8 28.8333C17.7 28.8333 17.2 27.8333 17.4333 26.7333L17.4667 26.5C17.7 25.2666 18.2667 24.4 20.3667 24.4C22.5333 24.4 23.0667 25.2666 22.8667 26.5ZM21.6 25.6C21.3667 25.3333 21 25.2333 20.3333 25.2333C19.3333 25.2333 18.7667 25.5333 18.5667 26.4333L18.5 26.6666C18.4 27 18.4667 27.3333 18.6667 27.6C18.9 27.8666 19.2667 28 19.8667 28C20.8667 28 21.5333 27.6666 21.7 26.8L21.7333 26.6C21.8333 26.2666 21.7667 25.9 21.6 25.6ZM29.5333 25.9333L29.5 26.0333C29.3667 26.6666 28.9667 27.3 27.6333 27.3333L28.9 28.2333L28.8 28.7666H28L26.3 27.5H25.2667L25 28.7666H23.9333L24.8 24.5H27.7333C29.4 24.5 29.6333 25.2 29.5333 25.9333ZM27.3 25.3H25.6667L25.3667 26.6666H27.1333C27.6667 26.6666 28.2667 26.6 28.3667 26.1V26.0333C28.4333 25.5 28.2 25.3 27.3 25.3ZM33.2 28.7666L33.9 25.3H35.9L36.0667 24.5H31L30.8333 25.3H32.8333L32.1333 28.7666H33.2Z" fill="white"/>
<path d="M18.9667 14.3667L15.2333 10.6333C14.6667 10.0667 14.6667 9.13333 15.2333 8.53333L18.9667 4.8C19.5333 4.23333 20.4667 4.23333 21.0667 4.8L24.8 8.53333C25.3667 9.1 25.3667 10.0333 24.8 10.6333L21 14.3667C20.4333 14.9333 19.5333 14.9333 18.9667 14.3667Z" fill="white"/>
<path d="M15.5 8.86668L19.2333 5.13335C19.6667 4.70002 20.3333 4.70002 20.7667 5.13335L24.5 8.86668C24.9333 9.30002 24.9333 9.96668 24.5 10.4L20.7333 14.1C20.3 14.5333 19.6333 14.5333 19.2 14.1L15.5 10.3667C15.1 9.93335 15.1 9.30002 15.5 8.86668Z" fill="url(#paint0_linear_14894_54179)"/>
<path d="M23 8.53336C22.9667 8.46669 23 7.46669 22.2667 7.36669C21.8 7.30002 21.3667 7.63336 21.0667 8.03336L22.5 8.70002L21.8333 10.1334C22.3333 10.2334 22.9 10.2334 23.2 9.86669C23.6667 9.36669 23.0333 8.60002 23 8.53336ZM20.1667 9.90002C19.8667 10.0334 18.9 11.9334 19.7333 12.6667C20.2667 13.1667 21.0333 12.5334 21.1 12.5C21.1667 12.4667 22.1667 12.5 22.2667 11.7667C22.4333 10.7 20.5 9.80002 20.1667 9.90002ZM19.9667 9.26669C20.2667 9.13336 21.2333 7.23336 20.4 6.50002C19.8667 6.00002 19.1 6.63336 19.0333 6.66669C18.9667 6.70002 17.9667 6.66669 17.8667 7.40002C17.7333 8.46669 19.6667 9.33336 19.9667 9.26669ZM19.7333 9.66669C19.6 9.36669 17.7 8.40002 16.9667 9.23336C16.4667 9.76669 17.1 10.5334 17.1333 10.6C17.1667 10.6667 17.1333 11.6667 17.8667 11.7667C18.9667 11.9334 19.8333 9.96669 19.7333 9.66669ZM18.1 12.5667L18.4667 12.9334C18.7333 12.6667 19.0333 12.2 19.1667 11.5334C19.1333 11.5334 18.9667 11.5 18.9333 11.5C18.8 12.0334 18.4 12.3667 18.1 12.5667Z" fill="white"/>
<path d="M20.9784 8.09621L20.3442 9.4187L21.6667 10.0529L22.3009 8.7304L20.9784 8.09621Z" fill="#E1001A"/>
<path d="M20.9977 8.11821L20.9256 8.26849L22.2782 8.91709L22.3502 8.76681L20.9977 8.11821Z" fill="#A70000"/>
<path d="M20.9694 8.12013L20.3352 9.44263L20.4855 9.51469L21.1197 8.1922L20.9694 8.12013Z" fill="#A70000"/>
</g>
<defs>
<linearGradient id="paint0_linear_14894_54179" x1="24.6062" y1="9.61655" x2="14.9633" y2="9.61655" gradientUnits="userSpaceOnUse">
<stop stop-color="#00A0E1"/>
<stop offset="0.01" stop-color="#009EDF"/>
<stop offset="0.16" stop-color="#0381C6"/>
<stop offset="0.33" stop-color="#0064AE"/>
<stop offset="0.5008" stop-color="#004E9B"/>
<stop offset="0.71" stop-color="#004694"/>
<stop offset="1" stop-color="#004492"/>
</linearGradient>
<clipPath id="clip0_14894_54179">
<rect width="40" height="40" fill="white"/>
</clipPath>
</defs>
</svg>
