<svg id="logo" xmlns="http://www.w3.org/2000/svg" viewBox="0 0 522 198" >
	<style type="text/css">
		.st1{fill:#E71C35;}
		.st2{fill-rule:evenodd;clip-rule:evenodd;fill:#FFFFFF;}
	</style>
	<g>
		<g style="clip-path:url(#SVGID_00000020373558931710545810000008647202208772124348_);">
			<g>
				<path class="st1" d="M518,193.2c-0.7-0.9-6.6-5.3-6.6-5.3c-0.1-1.2-0.7-1.4-1.2-1.8c-0.6-0.3-3.3-1.3-4-2.1
					c-4.8-5.9-8.1-6.6-8.1-6.6l-0.6-0.8c-2.3-3-6.9-5-6.9-5c-0.5-1.9-7.2-6.6-9.9-8.6c-2.7-2.1-3.3-2.5-4.8-4.2
					c-1.5-1.7-5.7-6.7-10.8-11.7c-1.5-1.4-4.1-2.6-4.1-2.6s-1.8-1.2-3.7-3.4c-2-2.3-18.1-23-18.1-23c2.2-4.7-1.7-8.7-2.2-9.5
					c1.5-6.9-2.5-15.2-2.5-15.2c0.2-3.9,6.2-10.3,12.1-17.4c6.3-7.5,10.8-15.4,11.6-16.4c1.3-1.7,5.6-2,5.6-2c3,2.6,5.8,3.8,7.3,4.4
					c1.5,0.5,6.6,0.9,6.6,0.9s1.6,1.4,2.9,2.3l1.3,0.9l-21.6-1.1l-1.4,2.8l7.6,0.1c0,0,15.4,0.7,16.3,0.8c0.9,0.1,3.3,0.6,3.3,0.6
					c0.7,0.8,2.7,1.7,2.7,1.7c-0.5,1-0.5,2.4,0.6,3.1c1.1,0.7,2.6,0.7,2.9,0.6c0.4-0.2,0.2,0,0.6,0.8c0.4,0.7,1.1,0.9,1.5,0.7
					c0.4-0.2,0.5-0.7,0.6-1c0.2-0.8-1.1-3.4-1.3-3.7c-1.2-2.4,0.5-3.6,1.6-0.7c0.4,1.1,1.9,2.6,2,3.6c0,1,0.2,1.4,1.1,1.5
					c1.3,0.2,1.8-0.3,2.1-0.5c0.3-0.2,0.7-0.7,1.2-1.1c0.4-0.3,1.3-0.6,1.4-1.2c0-1.1,1.9-2.7,1.8-3.6c-0.3-0.9-0.2-2.8,0-3.6
					c0.2-0.8,0.5-1.5-0.2-2.8c-0.7-1.3-2.5-2.3-2.5-2.3s-1.8-3.2-3.8-5.9c-2.1-2.6-2.8-4.4-4.1-6.7c-1.1-2.3-3.6-4.9-6.1-8.3
					c-2.5-3.4-2-4.2-1.9-6c0.1-1.4-0.7-1.9-1.1-2.5c-2.5-2-5.4-4.9-5.4-4.9c-1.6-1.6-2.9-3.7-6.4-6.2c-1.3-3.8-5.1-6.9-5.1-6.9
					c-0.4-2.4-1.1-2.6-1.1-2.6c-0.5,1.6,0.7,6.5,0.7,6.5l-3.5-3.6c-1.3-5.4-1.8-5-1.8-5l-0.3,0.4c-0.3,0.4-0.3,1.3-0.3,1.3
					s-0.2,2.3-0.3,3.9c-0.1,1.6,1.6,5.1,1.6,5.1l-2.8,1.9c-4.5-2.8-5.9,1.2-5.9,1.2l-1.8,0.7c-3.2-1.4-4.6,2.3-4.6,2.3
					s-1.4-0.4-2.7-0.2c-1.3,0.2-1.5,1.8-1.5,1.8h-3.9c6.8,5,14,12.1,15.6,12.5c2.6,0.6,3.2,0.4,2.5,3c-0.7,2.5,1.3,5.1,0.9,5.8
					c-1,1.9-2,3.4-2.9,4.4c-0.8,0.9-0.8,1.4-2.2,1.1c0.4,0.8,0,3.2-1.8,2.7c-1.9-0.6-3,0.4-3,0.4c-2.7,1.4-4.3-2.2-5-3.3
					c-0.6-1.1-1.8-1.4-4.3-1.6c-2.4-0.2-6.4-0.7-14.1-2.9c-8.8,2.4-20-2.6-20-2.6l-27.7,26.1c1.1,5.4,0.8,9.3-4,17.6
					c3.2,8.3-0.9,11-0.9,11s9.2,5.2,12,7c2.9,1.9,15.7,5.7,17.4,7.6c1.6,1.8,4.7,2.8,4.9,6.4c0.2,3.6-0.9,4.8-2.4,7.5
					c-1.4,2.7-3,3.3-3,3.3s-8.4,13.7-9.2,18.7c-0.2,1.4-0.7,2.5-1.3,3.4c-0.2,1.9-0.2,3.6,0,5.1c0.5,4.1,1.2,7.7,0.7,8.8
					c-1.3,2.9-2,3.3-2,3.3l-13.9,2.1c-0.4-0.3-2.9-1.1-4.6-1c-1.7,0.2-2.5,1.9-3.3,2.3c-0.8,0.5-2.4-0.7-2.9-1.1
					c-0.5-0.4-1.6-0.6-1.6-0.6s-1-2.9-1.2-3.6c-0.2-0.6-0.7-0.3-0.7-0.3s-0.8,0.2-1.3,0.5c-0.5,0.2-4.8,1.6-5.5,1.8
					c-0.7,0.2-3.4,1-4.6,1.4c-1.1,0.4-0.9,0.8-0.9,0.8l0.4,0.3c0.4,0.4,5.7,3.4,5.7,3.4c0,2,1.9,2.2,2.3,2.2c0.4,0,2.2-0.2,2.2-0.2
					c1.9,2.2,7,2.7,7,2.7s1.4,1.2,2.2,1.1c0.7,0,2.4-0.5,3.1-0.8c0.6-0.2,2.2-0.9,2.2-0.9s19-3.1,21-3.2c1.2,0,2-0.1,2-0.1
					s3.6-6.4,3.6-8.3c-0.1-2.3-0.2-4.2,0.2-6.3c0.5-3.1,5-13.9,6-22c0.6-4.5,4.3-11.9,6-15.2c1.5,0.5,3,0.8,4.1,1.3
					c3.5,3.7,8.8,4.4,8.8,4.4s3.7,2.2,4.8,3.7c1.1,1.5,5.3,4.2,7.1,5.3c1.3,0.8,8.4,5.3,11.3,6.8c2,1,2.1,1.2,2.5,1.7
					c2.4,2.3,10.1,8.2,10.5,8.5c0.4,0.4,2.4,1.1,3.6,1.2c1.2,0.1,2.6,1.2,5.3,3.3c2.7,2,10.5,9.3,12.2,10.9c1.8,1.6,3.3,4,3.6,4.8
					c0.3,0.8,0.3,2.4,1.8,3.7c1.7,1.4,2.9,0.8,3.6,0.7c0.6-0.1,1.8-0.5,3.6,0.4c1.8,0.9,3.3,2.4,3.6,3.1c0.3,0.8,1.2,4,1.9,5.4
					c0.7,1.3,1.4,1.6,2,1.4c0.7-0.1,0.7,0.5,0.7,0.5s0.4,2,0.5,2.7c0.1,0.7,0.5,0.5,0.5,0.5s0.7-0.1,0.8-0.1c0.1,0,11.4-3.2,11.8-3.3
					c0.4-0.1,0.7-0.1,0.7-0.4C518.4,193.5,518,193.3,518,193.2L518,193.2z"/>
			</g>
			<path class="st2" d="M458.7,43.3c0.7-2.6,0.2-3.4-2.5-4c-1-0.2-4.2-2.7-8.1-5.8c-5.9-4.7-13.4-10.7-17.7-12
				c-0.2-0.1-0.3-0.3-0.4-0.7c-0.2-0.9-0.5-2.3-4.7-3.2c-2.6-0.7-3.5-1.5-4.6-2.5c-0.4-0.4-0.8-0.7-1.3-1.1c-1.9-1.4-5-3.5-7.6-2.9
				c-1.3-1.8-2.8-3-4.3-4c-0.6-0.4-1.1-0.8-1.7-1.2c-2-1.6-3.9-3.8-4.1-4.6c-0.8,0.3,0.9,7.5,0.9,7.5s-3.8-3.2-6.3-4.4
				c-1.7-0.8-2.3-2.4-2.6-3.5v0c-0.2-0.5-0.3-0.8-0.5-0.9c-0.7,0.4,2.1,10.1,2.1,10.1s3.1,1.2,3.3,2.2c-2.3,0.6-7.5,3-7.5,3
				c-0.1,0-0.2,0.1-0.2,0.1c-0.1,0.1-0.2,0.1-0.3,0.2c0,0-2.7,0.1-2.8,0.1c-2.3-0.1-3.4-0.4-4.6-0.7c-1.8-0.5-3.6-1-9.9-0.7
				c-5.3,0.3-11.5-0.6-11.5-0.6s7.1,6.5,14.1,6.5c0,0-5.1,1-13.2,0.3C345.2,19,340.7,27,340.7,27s7.2-1.8,11.3-0.9
				c6,1.3,6.8,2.5,7.1,3c0.1,0.1,0.1,0.2,0.2,0.2c-0.3-0.1-5.7-1.8-11-0.6c-16.3,3.9-18.2,4.8-22.3,6.9c-7.5,3.6-9.2,5.9-8.8,6.8
				c7.3-1.6,15.2,0.7,17,3.1c-0.2,0.6-0.5,0.8-0.8,1c-0.3,0.2-0.6,0.4-0.6,0.9c1,1.7,1.8,4.9,2,6.1c-0.5,0.9-0.8,1.5-0.5,2.2
				c0.8,0.4,1.8,1.6,2.7,2.7v0c0.5,0.5,0.9,1.1,1.3,1.5V60c0,0.3,0,0.9-0.6,1.2c-0.2,0.1-0.6,0.2-0.8,0.3c-0.4,0.1-0.7,0.1-0.6,0.3
				c0,0.6,0.4,1.3,1,1.7c0.1,0.2,0,0.9,0,0.9c-0.7,0.5-2.1,1-3,1.2c-0.1,1.3,1,1.6,1.8,1.8c0.3,0.1,0.6,0.2,0.7,0.3
				c0.2,0.3,0.4,1.3,0.1,1.5c0,0-0.7-0.1-0.9,0.3c-0.1,0.3,0,0.7,0.1,1.1c0.2,0.7,0.3,1.6-0.2,2.4c-0.2,0.4-3,0.5-4.5,0.6
				c-0.1,0-0.2,0-0.2,0c0,0-0.1,0-0.1,0c-1.4,1-2.8,2.6-3.5,3.9c0.7,0.6,2.6,2.4,3.2,3.2c0.2,0.3,0.5,1.2,0.8,2.2
				c3.8,3.6,6.7,4.8,8.7,5.7c0.5,0.2,0.9,0.4,1.3,0.6c1.5,0.7,2.7,1.4,3.8,2v0c0.7,0.4,1.4,0.8,2,1.1c0.3-0.4,1.4-1.6,2.4-2.1
				c1-0.6,11.7-10.8,12.2-11.3c0.4,0.2,0.7,0.2,0.7,0.2s1.3-1.7,1.4-2.1l0-0.3v0c0.3-3,0.5-5.2,0.9-6.1c0.4-0.6,1.2-2,2-3.4l0,0
				c0.4-0.6,0.8-1.3,1.1-1.8c0.1-0.2,0.3-0.3,0.4-0.4c0.1-0.1,0.3-0.2,0.4-0.4c0.7-2,3.1-8.1,3.4-8.9c0.3,0,0.9-0.1,1.6-0.2l0,0
				c2.4-0.3,6.4-0.8,7.4-1.2c-0.1,0.2-0.3,0.7-0.7,1.5c-1.2,2.6-3.4,7.7-4.5,8.9c0,0-0.2,0.4-0.6,1c0.3,0.5,0.5,1,0.6,1.3
				c-0.1,0.5-0.5,1.1-0.9,1.6v0c-0.2,0.3-0.4,0.5-0.6,0.8c0,0.1,0.1,0.1,0.3,0.2c0.2,0.1,0.5,0.3,0.5,0.5v0c0,0.5,0,2-0.1,2.2
				c0,0.1-0.1,0.2-0.2,0.3c-0.1,0.1-0.2,0.3-0.2,0.3c0,0.1,0.1,0.2,0.2,0.3c0.1,0.2,0.2,0.3,0.2,0.4c0.1,0.6-0.1,1.5-0.1,1.8l0,0
				c0,0.1-0.2,0.5-0.3,0.8c-0.1,0.1-0.1,0.2-0.2,0.3c0.1,0.8-0.2,1.9-0.5,2.5c-0.4,1.3-3.7,4-5.1,4.6c-0.5,0.3-2,2.2-2,2.2
				s1,2.7,0.5,3.5c-4.5,7.5-13.7,15.8-17.4,18.7c-1,0.8-4.8-0.2-9.6-1.4c-3.9-1-8.5-2.2-12.8-2.8c-5.8,5.6-13.7,10.4-23.6,13.3
				c0,0-0.1,0-0.1,0.1c0,0,0,0,0,0c0,0,0,0-0.1,0c0,0,4.6,0.5,11.1-1L329,133c2.6,4.5,11.1,17.1,11.1,17.1s-1.9,3.9-2.1,5
				c-3.7,1.7-15.4,10.3-15.4,10.3s-4-0.9-7,2.6c-1.6,1.6-3.1-0.2-3.1-0.2s-2.6-2.9-4.2-2.7c-1.6,0.2-3-0.9-3-0.9l-9.7,7.7
				c0,0-1,1,0.5,1.3c1.4,0.3,7.8,2.2,7.8,2.2s2.4,1.1,4.6-0.2c2.5,0.5,9.6,0,12.8-1.2c3.2-1.2,19.8-11.8,19.8-11.8l2.6-0.5
				c0,0,7.1-5.1,7.8-6.8c0.6-1.7-0.3-4.8-0.3-4.8s-5.6-10.3-6.3-13.7c-0.8-3.4-5.7-20.9-5.7-20.9l6.1,1.6c0,0,5.1,8.2,14.9,4.7
				c2.1,0.2,5,0.7,8.5,1.4c2.4,0.4,5,0.9,7.8,1.4c10.4,1.7,20.7,2.9,21,2.9c0.7,1.7,1.3,2.5,1.3,2.5l-8.7,15.8c0,0-4.1,2.6-3.5,8.6
				c0,0.4-2.6,2.8-2.6,2.8s-1.1-0.5-2.2-0.4c-1,0.1-2,1.3-2,1.3l-3.8-1.1l-7.9,8.3c0,0-0.6,0.5,0.3,0.7c0.2,0,0.8,0.1,1.5,0.2h0
				c2.1,0.3,5.6,0.7,6.6,1.1c1.2,0.5,2-0.5,2.5-1c0.1-0.1,0.2-0.2,0.3-0.3c0.2-0.1,0.6-0.2,1-0.2c0.7-0.1,1.5-0.2,2.1-0.5
				c0.5-0.3,1.8-1.2,3.1-2.1v0c1.5-1.1,3-2.2,3.5-2.4c0,0,0.1,0,0.2-0.1c1.1-0.5,4.6-2.1,5.4-6.9c0.8-5,9.2-18.9,9.2-18.9
				s1.6-0.7,3-3.4c0.2-0.4,0.5-0.9,0.7-1.2c1.1-1.9,1.8-3.3,1.7-6.3c-0.2-3.3-2.7-6.1-4.4-8c-0.2-0.2-0.3-0.4-0.5-0.5
				c-0.9-1-4.9-2.3-8.9-3.5c-3.5-1.1-6.9-2.2-8.3-3.1c-2.9-1.9-11.9-6.1-11.9-6.1s4-2.8,0.9-11.1c4.7-8.4,5-12.4,4-17.8l27.5-26.4
				c0,0,11.1,5.1,19.8,2.6c7.6,2.3,11.6,2.8,14,2.9c2.4,0.2,3.7,2.5,4.3,3.6l0,0c0.6,1.1,2.2,2.7,4.9,1.3c0,0,1.1-1,2.9-0.4
				c1.8,0.6,2.2-1.9,1.8-2.7c1.1,0.2,1.3-0.1,1.8-0.7c0.1-0.1,0.2-0.3,0.4-0.5c0.9-1,1.8-2.5,2.8-4.5c0.1-0.3-0.1-0.7-0.4-1.3
				C459,46.7,458.3,45,458.7,43.3L458.7,43.3L458.7,43.3L458.7,43.3L458.7,43.3z M120.1,73.8h-4.6l0,0l0,0l-26.7,97.4h5.6
				c10.4,0,15.6-5.2,17.6-12.4l0.6-2.3c1.6-5.8,4-14.9,7.4-27.6c1.8-6.7,3.2-13.1,3.2-13.1s11.2,38.1,12.4,42.2
				c0.9,3.3,2.4,3.9,5.6,3.9c0.7,0,1.4,0,2,0c1.2,0,2.2,0,3.1,0c3.8-0.2,5.7-1,7.7-3.5c3.3-4,34.4-42.9,34.4-42.9s-14.6,53-15.3,55.6
				c0,0,2.9,0,6,0c11.2,0,15.9-5,17.8-12.3c0.3-1.3,20.6-75.2,23.2-85h-5.8c-8.9,0-15.5,1.7-18.8,5.7c-2,2.5-45.7,56.3-45.7,56.3
				s-14.3-48.3-15.7-53.1C132.3,76.7,128,73.8,120.1,73.8z M2.6,73.8h78.1h0c8.6,0,17.6,2.7,17.6,20.2c0,20.5-14.1,41.9-33.9,41.9
				H31.3c0,0-4.5,16.4-6.2,22.9c-1.9,7.3-7.6,12.4-18.8,12.4H0.4l0.3-1c1.5-5.7,6-22.5,23.2-85.4c-0.3,0-3.5-0.8-7.1-1.8
				c-2.7-0.7-5.5-1.4-7.7-2C3.1,79.6,2,76.9,2.6,73.8z M64.7,120.2c-0.1,0,2.5,0,4-1.5h0h0c6-6,8.8-15.7,7.6-23.5
				C75.5,91,72.1,91,72.1,91H43.2l-7.8,29.2H64.7z M312.5,73.8h-5.3l0,0c-11.2,0-16.7,5-18.8,12.4c-1.5,5.5-13.2,47.3-16.6,59.2
				c-0.2,0.7-1,3.3-3.1,4.5c-3,1.7-9.1,4.2-18.1,4.2c-6.6,0-11.2-1.9-13.8-3.5c-3-1.8-2.2-4.7-2-5.6c0-0.1,0-0.1,0-0.2l19.8-71.1h-6
				c-11.2,0-16.8,5-18.8,12.4l-0.3,1.1c-2.2,8.1-11.6,43.3-15.1,55.8c-4.1,14.6,7.6,28.5,31.6,28.5c26.3,0,42.4-9.4,47.2-26.9
				C301.1,116,308.2,89.8,312.5,73.8z"/>
		</g>
	</g>
</svg>
