<svg xmlns="http://www.w3.org/2000/svg" width="158" height="22" viewBox="0 0 158 22">
    <defs>
        <linearGradient id="prefix__a" x1="98.105%" x2="-2.37%" y1="50%" y2="50%">
            <stop offset="0%" stop-color="#00A0E1"/>
            <stop offset="1%" stop-color="#009EDF"/>
            <stop offset="16%" stop-color="#0381C6"/>
            <stop offset="33%" stop-color="#0064AE"/>
            <stop offset="50.08%" stop-color="#004E9B"/>
            <stop offset="71%" stop-color="#004694"/>
            <stop offset="100%" stop-color="#004492"/>
        </linearGradient>
    </defs>
    <g fill="none">
        <g>
            <g>
                <path fill="#FFF" d="M8.933 4.004C8.933 1.54 7.516.293 4.559.293H.139v10.58h2.756V8.04h1.756c2.772-.015 4.282-1.386 4.282-4.035zM4.636 5.483h-1.74V2.849h1.74c.985 0 1.494.447 1.494 1.325 0 1.047-.832 1.309-1.494 1.309zm62.39 2.094c0 2.249-1.571 3.543-4.42 3.543-1.279.015-2.557-.247-3.728-.77l.54-2.526s1.693.631 3.157.631c1.293 0 1.555-.308 1.555-.662 0-.662-1.186-.816-2.449-1.217-1.324-.431-2.864-1.293-2.864-3.265 0-2.064 1.386-3.28 4.374-3.28 1.232.03 2.448.246 3.619.647l-.508 2.48c-1.001-.386-2.064-.57-3.142-.586-.97 0-1.479.216-1.479.678 0 .492.801.631 2.033 1 1.463.478 3.311 1.217 3.311 3.327zM54.595.293h2.758v10.58h-2.757l-4.282-5.99v5.99H47.56V.293h2.648l4.374 6.13.016-6.13zM40.583.03c-3.404 0-5.699 2.233-5.699 5.544 0 3.311 2.295 5.545 5.699 5.545 3.403 0 5.698-2.218 5.698-5.545C46.28 2.25 44 .031 40.582.031zm0 8.409c-1.633 0-2.742-1.155-2.742-2.865 0-1.71 1.094-2.864 2.742-2.864s2.741 1.155 2.741 2.864c0 1.71-1.093 2.865-2.741 2.865zM12.012.277l-4.404 10.58h3.065l.678-1.709h4.512l.678 1.71h3.05L15.2.293 12.013.277zm.278 6.53l1.325-3.326 1.324 3.326H12.29zM30.848.293h2.757v10.58h-2.757V.293zm-1.54 3.727c0-2.372-1.463-3.743-3.973-3.743h-5.206v10.58h2.772v-2.94h1.402l1.956 2.94h3.311L27.137 7.47c1.57-.463 2.156-2.126 2.171-3.45zm-4.25 1.386H22.9V2.834h2.187c.524 0 1.417.185 1.417 1.216-.015.586-.292 1.356-1.447 1.356zM135.529 10.858L69.105 10.858 69.105.293 135.529.293z" transform="translate(.59 .59) translate(21.716 3.85)"/>
                <path fill="#00265A" d="M101.955 9.58c-4.528 0-5.79-1.587-5.298-3.882l.077-.4c.478-2.233 1.725-3.727 6.16-3.727 4.113 0 6.038 1.201 5.437 3.881l-.077.385c-.277 1.278-.816 2.14-1.679 2.726-1 .693-2.51 1.016-4.62 1.016zm.786-5.96c-2.141 0-2.927.415-3.235 1.724l-.077.4c-.092.447-.046.801.154 1.063.385.524 1.063.709 2.541.709 2.218 0 3.127-.462 3.373-1.71l.077-.323c.278-1.294-.477-1.864-2.833-1.864zM76.066 9.58c-1.971 0-3.897-.14-4.975-.37l.385-1.848h1.078c1.032.308 2.696.462 3.82.462 1.833 0 2.464-.093 2.587-.647.077-.37-.123-.54-.724-.555l-3.049-.154c-2.895-.123-3.434-.985-3.126-2.448.4-1.833 1.786-2.434 5.713-2.434 1.479-.015 2.942.108 4.39.37l-.4 1.833h-1.079c-1.047-.293-2.14-.447-3.234-.447-2.08 0-2.557.154-2.649.57-.062.354.123.524.924.554l2.757.154c2.864.124 3.557.924 3.234 2.434-.462 2.14-2.202 2.525-5.652 2.525zm49.622-.155l1.201-5.59h-3.696l.462-2.125h10.196l-.462 2.125h-3.774l-1.2 5.59h-2.727zm-7.223 0l-3.265-1.97-2.11-.016-.431 2.002h-2.71l1.663-7.716h6.314c3.05 0 4.143.955 3.773 2.757l-.03.2c-.355 1.648-2.157 2.033-3.112 2.171l2.187 1.217-.308 1.355h-1.971zm-4.944-4.004h3.389c.924 0 1.817-.046 1.955-.74l.016-.091c.138-.647-.339-.878-1.694-.878h-3.311l-.355 1.71zM83.49 9.425l1.664-7.715h6.268c2.849 0 4.02 1.016 3.604 3.049l-.047.246c-.37 1.787-1.94 2.696-4.682 2.696h-3.742l-.37 1.74-2.695-.016zm3.496-3.727h3.681c.955 0 1.571-.154 1.694-.893l.016-.077c.123-.693-.185-1-1.463-1h-3.481l-.447 1.97z" transform="translate(.59 .59) translate(21.716 3.85)"/>
            </g>
            <path fill="#FFF" d="M7.562 17.973L.893 11.304c-1.032-1.031-1.032-2.71 0-3.742L7.562.893c1.032-1.032 2.71-1.032 3.742 0l6.669 6.669c1.032 1.032 1.032 2.71 0 3.742l-6.669 6.669c-1.031 1.047-2.71 1.047-3.742 0z" transform="translate(.59 .59)"/>
            <g>
                <path fill="url(#prefix__a)" d="M.6 7.285L7.286.616c.77-.77 2.002-.77 2.756 0L16.726 7.3c.77.77.77 2.002 0 2.757l-6.685 6.669c-.77.77-2.002.77-2.756 0L.6 10.04c-.77-.754-.77-1.986 0-2.756z" transform="translate(.59 .59) translate(.77 .77)"/>
                <path fill="#FFF" d="M14.092 6.653c-.03-.108-.015-1.925-1.294-2.094-.847-.108-1.601.446-2.187 1.186L13.2 6.992 11.967 9.58c.924.2 1.894.154 2.48-.477.862-.97-.309-2.34-.355-2.449zM9.04 9.18c-.523.246-2.264 3.604-.8 4.99.954.893 2.325-.277 2.433-.308.108-.03 1.925.015 2.11-1.278.277-1.987-3.173-3.543-3.743-3.404zm-.415-1.201c.523-.247 2.264-3.604.8-4.975-.939-.893-2.325.277-2.448.308-.108.031-1.925-.015-2.11 1.279-.262 1.986 3.188 3.526 3.758 3.388zm-.416.8c-.247-.523-3.62-2.263-4.975-.8-.893.955.277 2.325.308 2.433.031.108-.015 1.925 1.279 2.11 1.97.277 3.526-3.173 3.388-3.742zm-2.957 5.19l.693.694c.462-.478 1.032-1.294 1.263-2.51-.047-.016-.37-.062-.416-.062-.324.94-1.001 1.54-1.54 1.879z" transform="translate(.59 .59) translate(.77 .77)"/>
                <path fill="#E1001A" d="M9.71 6.405L12.344 6.405 12.344 9.039 9.71 9.039z" transform="translate(.59 .59) translate(.77 .77) rotate(-64.38 11.027 7.722)"/>
                <path fill="#A70000" d="M11.398 5.397L11.706 5.397 11.706 8.03 11.398 8.03z" transform="translate(.59 .59) translate(.77 .77) rotate(-64.38 11.552 6.714)"/>
                <path fill="#A70000" d="M8.703 7.076L11.337 7.076 11.337 7.384 8.703 7.384z" transform="translate(.59 .59) translate(.77 .77) rotate(-64.38 10.02 7.23)"/>
            </g>
        </g>
        <path fill="#FFF" d="M22.444 17.67h3.189v.847h-2.126v.755h1.925v.832h-1.925v.754h2.187v.847h-3.25V17.67zm7.393 0h.986v4.035h-.924l-1.833-2.418v2.418h-.986V17.67h.924l1.833 2.434V17.67zm4.543 0h1.048v3.142h1.71v.893h-2.773V17.67h.015zm4.005 0h1.047v4.035h-1.047V17.67zm5.251 1.971h.909v1.602c-.216.154-.477.293-.785.385-.308.093-.616.154-.894.154-.4 0-.77-.092-1.109-.277-.323-.185-.585-.431-.77-.755-.184-.323-.277-.677-.277-1.078 0-.385.093-.739.293-1.062.2-.324.462-.57.8-.74.34-.184.724-.277 1.14-.277.293 0 .601.062.894.17.292.107.554.261.754.446l-.6.74c-.139-.14-.308-.247-.509-.324-.184-.077-.37-.123-.554-.123-.216 0-.416.046-.585.154-.17.108-.308.246-.416.431-.093.185-.154.385-.154.6 0 .232.046.432.154.617.092.185.23.323.416.431.17.108.37.154.585.154.2 0 .431-.062.693-.2V19.64h.015zm5.114-1.97h.985v4.034h-.924l-1.833-2.418v2.418h-.985V17.67h.924l1.833 2.434V17.67zm2.525 0h3.188v.846h-2.125v.755h1.925v.832h-1.925v.754h2.187v.847h-3.25V17.67z"/>
    </g>
</svg>
